<svg preserveAspectRatio="none" width="100%" height="100%" overflow="visible" style="display: block;" viewBox="0 0 40 40" fill="none" xmlns="http://www.w3.org/2000/svg">
<g id="Group 2302">
<g id="Background">
</g>
<g id="Group 2305">
<path id="Vector" d="M30.5194 22.2554C31.1005 22.2346 31.5797 22.1298 32.0242 21.8817C32.1895 21.7894 32.267 21.8258 32.3456 22.0047C32.5648 22.4921 32.8856 22.915 33.2817 23.2388C33.3684 23.3118 33.4423 23.3706 33.3639 23.5111C33.2997 23.6264 33.251 23.6495 33.1465 23.5619C32.7685 23.2457 32.4429 22.8776 32.2031 22.4248C32.1255 22.2784 32.0513 22.252 31.9033 22.3123C31.1877 22.604 30.4555 22.7116 29.7089 22.468C28.5611 22.0933 27.9223 20.736 28.3457 19.5539C28.585 18.8857 29.0475 18.4569 29.6415 18.186C29.7644 18.13 29.7898 18.1778 29.8078 18.3017C29.908 18.9829 30.162 19.6252 30.5461 20.1695C30.6259 20.2848 30.6066 20.3607 30.5305 20.4632C30.2109 20.8942 30.0012 21.3897 29.848 21.9176C29.8015 22.0776 29.8039 22.1772 29.9938 22.1882C30.1974 22.2 30.3998 22.2393 30.5194 22.2554Z" fill="var(--fill-0, #FCC426)"/>
<path id="Vector_2" d="M31.8733 25.1404C31.3476 25.132 30.8458 24.8967 30.4752 24.485C30.1046 24.0732 29.8947 23.5175 29.8902 22.937C29.8899 22.777 29.926 22.7213 30.0772 22.7468C30.69 22.8504 31.2879 22.7637 31.8694 22.5402C31.9967 22.4913 32.0547 22.5393 32.1186 22.6476C32.398 23.1138 32.7581 23.5145 33.1782 23.8266C33.3177 23.9325 33.3685 23.8987 33.4375 23.7486C33.7536 23.0605 33.9013 22.3377 33.8021 21.5692C33.7722 21.3374 33.8226 21.2391 34.0404 21.2059C34.521 21.1304 34.9766 20.9223 35.3649 20.6007C35.503 20.4884 35.5759 20.5475 35.6536 20.655C35.7609 20.8034 35.6075 20.8318 35.5485 20.8789C35.181 21.175 34.7626 21.3848 34.319 21.4956C34.1746 21.5313 34.1279 21.5946 34.1321 21.7755C34.1584 22.9019 33.9337 23.9294 33.0924 24.6774C32.7508 24.9907 32.3173 25.1553 31.8733 25.1404Z" fill="var(--fill-0, #FCC426)"/>
<path id="Vector_3" d="M31.9838 15.5558C32.6674 15.5597 33.1802 15.9183 33.5935 16.4926C33.6646 16.5914 33.6527 16.636 33.5565 16.6908C32.9936 17.0106 32.5141 17.4839 32.1631 18.0657C32.0893 18.1862 32.0074 18.1518 31.9147 18.1132C31.4496 17.9198 30.9666 17.8516 30.4714 17.8472C30.2756 17.8455 30.2407 17.915 30.2706 18.1197C30.3822 18.8852 30.6649 19.5573 31.1507 20.1145C31.2956 20.2807 31.2808 20.367 31.1397 20.5198C30.7949 20.8971 30.5349 21.3584 30.3807 21.8667C30.3571 21.942 30.3655 22.0471 30.2419 22.0464C30.0455 22.0454 30.0053 22.0031 30.0712 21.7979C30.2266 21.3141 30.4385 20.8622 30.752 20.4793C30.8591 20.3485 30.8485 20.2638 30.7519 20.1324C30.2478 19.4464 29.9475 18.6627 29.9441 17.7747C29.9395 16.5336 30.8616 15.5482 31.9838 15.5558Z" fill="var(--fill-0, #FCC426)"/>
<path id="Vector_4" d="M34.3688 18.6101C34.3765 18.127 34.2726 17.6673 34.137 17.212C34.0865 17.0422 34.0285 17.0302 33.8871 17.1088C33.2397 17.4691 32.735 17.9902 32.3952 18.6963C32.3192 18.8542 32.2564 18.8899 32.1108 18.8037C31.6504 18.5324 31.136 18.3923 30.6141 18.3961C30.4525 18.3958 30.466 18.2811 30.4551 18.172C30.4406 18.0258 30.5387 18.0466 30.6159 18.0485C31.0732 18.0598 31.52 18.1411 31.9411 18.3413C32.1116 18.4224 32.1989 18.3807 32.2979 18.2139C32.6689 17.5776 33.1998 17.0743 33.8255 16.7655C34.6147 16.3739 35.3506 16.5045 35.9894 17.126C36.6258 17.7452 36.8095 18.5336 36.5595 19.4348C36.4976 19.6762 36.404 19.9062 36.2814 20.1174C36.2275 20.2063 36.1903 20.2356 36.1022 20.1386C35.6668 19.6546 35.1266 19.3016 34.5328 19.1131C34.4001 19.0708 34.3555 18.9945 34.3675 18.8525C34.3743 18.7723 34.3688 18.691 34.3688 18.6101Z" fill="var(--fill-0, #FCC426)"/>
<path id="Vector_5" d="M34.1897 18.8016C34.1926 18.8257 34.1923 18.8501 34.1889 18.8742C34.1063 19.1653 34.2626 19.2291 34.4764 19.3064C35.345 19.6201 36.0903 20.1158 36.4627 21.1028C36.9031 22.27 36.4477 23.5436 35.4159 24.0158C34.9579 24.2253 34.4872 24.2055 34.0148 24.0645C33.9061 24.0322 33.8683 23.9957 33.927 23.8666C34.2076 23.2496 34.3431 22.5646 34.3211 21.8747C34.3166 21.7006 34.4082 21.6778 34.5159 21.645C35.0027 21.4969 35.4354 21.233 35.8377 20.9006C35.9515 20.8066 35.9646 20.7441 35.8559 20.6212C35.3597 20.0601 34.7694 19.6909 34.0727 19.5479C33.8598 19.5042 33.7979 19.4316 33.8436 19.1864C33.9411 18.6618 33.8663 18.1415 33.7429 17.6292C33.7252 17.5553 33.6679 17.4754 33.7395 17.4052C33.7935 17.3522 33.8592 17.2999 33.9347 17.3097C34.0075 17.3192 34.0031 17.4068 34.0189 17.4636C34.1413 17.8964 34.199 18.3483 34.1897 18.8016Z" fill="var(--fill-0, #FCC426)"/>
<path id="Vector_6" d="M28.2658 18.011C28.1989 18.0858 28.1435 18.1852 28.0631 18.2315C27.4923 18.5602 27.1798 19.1105 26.9756 19.7536C26.3469 21.734 25.7198 23.7149 25.0947 25.6967C24.9263 26.2294 24.7605 26.7632 24.5909 27.3045C24.0731 27.3045 23.5605 27.3225 23.0495 27.2979C22.7275 27.2825 22.5137 27.0554 22.4058 26.7231C22.2134 26.1304 22.0246 25.5361 21.8397 24.9405C21.1267 22.6591 20.4145 20.3773 19.7032 18.0952C19.6892 18.0502 19.6791 18.0037 19.6666 17.9558C20.1226 17.9558 20.5724 17.9316 21.0185 17.9663C21.2337 17.9829 21.3173 18.2212 21.3824 18.4366C21.9402 20.2818 22.4991 22.1267 23.0589 23.9713C23.2476 24.5966 23.4248 25.2262 23.6072 25.8533C23.7573 25.3344 23.9029 24.8097 24.0608 24.2896C24.6115 22.4754 25.1648 20.6621 25.7204 18.8498C25.9301 18.164 26.2389 17.9205 26.8935 17.9179C27.2672 17.9166 27.6409 17.9166 28.0146 17.9181C28.0847 17.9184 28.1548 17.9268 28.2249 17.9314L28.2658 18.011Z" fill="var(--fill-0, #006C67)"/>
<path id="Vector_7" d="M10.4767 17.9353C10.8843 17.9353 11.2707 17.9194 11.6551 17.9418C11.8537 17.9534 11.9286 18.133 11.9294 18.3416C11.9307 18.6896 11.9299 19.0374 11.9299 19.3853C11.9299 21.9256 11.9299 24.4659 11.9299 27.0063V27.3005C11.5155 27.3005 11.1088 27.3148 10.7044 27.2879C10.6269 27.2828 10.5415 27.1251 10.4912 27.0194C10.4575 26.9484 10.4766 26.8453 10.4766 26.7564C10.4763 23.9168 10.4763 21.0771 10.4767 18.2375C10.4767 18.1417 10.4767 18.046 10.4767 17.9353Z" fill="var(--fill-0, #006C67)"/>
<path id="Vector_8" d="M9.49489 23.3167C9.16711 22.8284 8.72129 22.5432 8.17222 22.3931C8.21561 22.3532 8.22506 22.3387 8.23758 22.3339C9.45428 21.8704 9.99976 20.4359 9.41975 19.1799C9.03367 18.3438 8.34004 17.9962 7.54509 17.9605C6.30178 17.9048 5.05566 17.9253 3.81072 17.917C3.43544 17.9146 3.33358 18.034 3.33354 18.4558C3.33324 21.2385 3.33327 24.0212 3.33361 26.8039C3.33365 27.1964 3.43584 27.3116 3.78587 27.3118C4.94326 27.3127 6.1007 27.3189 7.258 27.3075C7.55036 27.3089 7.84193 27.2738 8.12719 27.2031C10.0339 26.6967 10.2782 24.4834 9.49489 23.3167ZM4.80245 19.2204C4.81909 19.2065 4.83045 19.1887 4.84176 19.1888C5.58734 19.1914 6.33446 19.1643 7.07803 19.2089C7.75775 19.2498 8.12476 19.7239 8.13578 20.4608C8.1477 21.2571 7.77613 21.8119 7.08468 21.866C6.33634 21.9244 5.58135 21.8792 4.80245 21.8792V19.2204ZM7.84595 25.8111C7.606 25.9477 7.34298 26.0278 7.07353 26.0463C6.34967 26.0796 5.62385 26.0616 4.89881 26.0627C4.86713 26.059 4.83583 26.0521 4.80528 26.0422V22.9926C5.26586 22.9926 5.71163 22.987 6.15722 22.9942C6.53001 23.0003 6.90526 22.9955 7.27468 23.0417C7.87752 23.1171 8.32201 23.5831 8.42719 24.1978C8.54884 24.909 8.34307 25.5338 7.84595 25.8111Z" fill="var(--fill-0, #006C67)"/>
<path id="Vector_9" d="M19.6672 20.4372C19.1903 18.8824 18.145 18.0272 16.6535 17.9512C15.4913 17.8919 14.3254 17.9208 13.1611 17.9193C12.8894 17.9189 12.7847 18.0661 12.7847 18.3896C12.7846 21.2448 12.7847 24.1001 12.7849 26.9552V27.2988C12.8504 27.3047 12.8927 27.3118 12.9349 27.3118C14.1727 27.3105 15.4112 27.3364 16.6481 27.298C17.7731 27.2629 18.6998 26.7357 19.2813 25.6511C20.1695 23.9942 20.2129 22.2162 19.6672 20.4372ZM18.1894 24.5762C17.8916 25.4495 17.2981 25.9668 16.4588 26.0327C15.731 26.0898 14.9968 26.0446 14.2467 26.0446V19.1841C14.9147 19.1841 15.5523 19.164 16.1884 19.1885C17.3205 19.2321 18.0294 19.8367 18.3101 21.0467C18.5841 22.2279 18.5839 23.4193 18.1894 24.5762Z" fill="var(--fill-0, #006C67)"/>
</g>
</g>
</svg>
